<svg width="120" height="140" viewBox="0 0 120 140" fill="none" xmlns="http://www.w3.org/2000/svg" role="img" aria-label="SamaraGo">
  
  <ellipse cx="60" cy="131" rx="22" ry="5" fill="#2C2018" opacity="0.14"></ellipse>
  
  <path d="M60 6 C33 6 12 26 12 53 C12 86 47 116 58 124 a3 3 0 0 0 4 0 C73 116 108 86 108 53 C108 26 87 6 60 6 Z" fill="#3E9B4F"></path>
  <path d="M60 6 C33 6 12 26 12 53 C12 86 47 116 58 124 a3 3 0 0 0 4 0 C73 116 108 86 108 53 C108 26 87 6 60 6 Z" fill="#266B36" opacity="0.18"></path>
  <path d="M60 6 C33 6 12 26 12 53 C12 84 44 113 56 122 a4 4 0 0 0 3 1 V6 Z" fill="#52B069" opacity="0.55"></path>
  
  <circle cx="60" cy="51" r="33" fill="#FBF6EC"></circle>
  <circle cx="60" cy="51" r="33" fill="#3A2A1E" opacity="0.05"></circle>
  
  <path d="M38 64 q22 14 44 0 q-3 9 -22 9 q-19 0 -22 -9 Z" fill="#C05F3C"></path>
  
  <path d="M60 66 C60 56 60 48 60 40" stroke="#2F8341" stroke-width="5" stroke-linecap="round"></path>
  
  <path d="M60 50 C50 50 41 45 38 36 C49 33 58 38 60 47 Z" fill="#52B069"></path>
  
  <path d="M60 44 C61 34 69 27 80 26 C81 37 74 45 63 46 Z" fill="#3E9B4F"></path>
</svg>